#!OML:ASF I:\Actors\actors\Patient Classification 1\Patient 1\Session 1\Subject1.ASF
:FULLY-SPECIFIED
:DEGREES
218
root 0.0146472 17.6114 8.27684 12.0734 -18.5048 -6.42886
lowerback 4.034 -3.50548 2.21307
upperback -7.75672 -4.10372 5.71563
thorax -10.276 -1.93145 5.44152
lowerneck -15.0354 2.15921 5.90476
upperneck 23.6254 -1.15846 9.41204
head 10.1514 1.03317 2.17729
rclavicle 1.04809e-013 -3.65764e-014
rhumerus -24.9393 40.1707 -55.5693
rradius 131.212
rwrist -9.29217
rhand 11.9029 -43.047
rfingers 7.12502
rthumb 36.9288 -69.1298
lclavicle 1.04809e-013 -3.65764e-014
lhumerus 21.6026 -23.3836 32.8339
lradius 85.3719
lwrist -345.368
lhand -4.81838 -17.6187
lfingers 7.12502
lthumb 20.9679 11.2679
rfemur -13.3793 24.0944 16.7771
rtibia 8.88007
rfoot -10.409 -10.4683
rtoes -10.0726
lfemur 2.35887 -26.3925 -16.7172
ltibia -1.22789
lfoot -25.0147 48.8878
ltoes 16.9475
219
root 0.0389254 17.5934 8.29046 12.4482 -20.9806 -5.84612
lowerback 4.12669 -2.85942 1.96412
upperback -7.98075 -3.2704 5.3591
thorax -10.6462 -1.51447 5.11651
lowerneck -14.6036 2.23222 5.82297
upperneck 23.8289 -1.04754 9.52211
head 10.1396 1.08559 2.24286
rclavicle -5.17337e-014 -3.97569e-015
rhumerus -28.4055 39.7973 -58.1339
rradius 130.944
rwrist -8.46315
rhand 10.7775 -42.3752
rfingers 7.12502
rthumb 35.8634 -68.7252
lclavicle -5.17337e-014 -3.97569e-015
lhumerus 16.4385 -21.4396 35.1047
lradius 93.8235
lwrist -344.66
lhand -2.78139 -17.173
lfingers 7.12502
lthumb 22.9238 11.4842
rfemur -15.6102 24.4264 15.2205
rtibia 10.6324
rfoot -10.6476 -8.353
rtoes -9.63606
lfemur 2.42485 -26.8132 -18.0005
ltibia -1.30925
lfoot -28.4884 50.6727
ltoes 20.0036
220
root 0.0449639 17.5817 8.35823 12.8308 -22.2089 -5.96638
lowerback 3.58512 -2.65291 2.75853
upperback -8.03808 -2.96094 5.20323
thorax -10.4563 -1.4421 4.42876
lowerneck -14.4495 2.38129 5.93622
upperneck 24.3206 -0.881218 9.40545
head 10.2847 1.17569 2.21604
rclavicle 4.72114e-014 -1.98785e-014
rhumerus -31.6444 39.2415 -60.7399
rradius 130.738
rwrist -7.96873
rhand 9.25045 -41.2635
rfingers 7.12502
rthumb 34.4151 -67.9542
lclavicle 4.72114e-014 -1.98785e-014
lhumerus 11.3134 -18.8924 37.25
lradius 101.68
lwrist -345.307
lhand -2.27678 -16.8558
lfingers 7.12502
lthumb 23.4079 11.7405
rfemur -16.3389 24.645 15.0196
rtibia 11.2713
rfoot -10.8313 -7.24179
rtoes -9.75218
lfemur 2.87781 -26.9899 -18.4811
ltibia -1.61083
lfoot -30.585 51.5063
ltoes 21.5087
221
root 0.0429688 17.5686 8.43048 13.2744 -23.0813 -6.34826
lowerback 3.0619 -2.53183 3.77461
upperback -8.12137 -2.75199 5.09596
thorax -10.3066 -1.43205 3.69272
lowerneck -14.4044 2.51705 6.35228
upperneck 24.8287 -0.766508 9.07235
head 10.4621 1.24867 2.05726
rclavicle 2.18166e-014 4.77083e-015
rhumerus -34.8357 38.4416 -63.3731
rradius 130.726
rwrist -7.45872
rhand 8.78031 -40.4676
rfingers 7.12502
rthumb 33.9686 -67.2583
lclavicle 2.18166e-014 4.77083e-015
lhumerus 6.51837 -15.968 38.969
lradius 109.086
lwrist -346.182
lhand -1.74458 -16.7708
lfingers 7.12502
lthumb 23.9184 11.7596
rfemur -16.7528 24.9865 15.2231
rtibia 11.6442
rfoot -11.0233 -6.57559
rtoes -10.2213
lfemur 3.43783 -27.5935 -18.7106
ltibia -1.98153
lfoot -32.8864 52.3944
ltoes 23.1071
222
root 0.0372851 17.5537 8.49276 13.4595 -23.841 -6.48439
lowerback 2.85427 -2.43963 4.45878
upperback -8.24098 -2.59802 4.90747
thorax -10.3672 -1.42303 3.08755
lowerneck -14.3458 2.62812 6.62667
upperneck 25.2545 -0.725472 9.05362
head 10.6131 1.30703 2.02269
rclavicle 4.99943e-014 -1.82882e-014
rhumerus -37.8664 37.6768 -65.7875
rradius 130.901
rwrist -7.01878
rhand 8.82699 -40.1942
rfingers 7.12502
rthumb 34.0129 -66.9751
lclavicle 4.99943e-014 -1.82882e-014
lhumerus 2.14881 -13.0596 40.0327
lradius 116.066
lwrist -346.225
lhand -0.757198 -16.4054
lfingers 7.12502
lthumb 24.8649 11.9976
rfemur -16.9424 25.3129 15.2457
rtibia 11.9073
rfoot -11.2052 -6.05442
rtoes -10.4342
lfemur 4.12835 -28.5286 -19.2916
ltibia -2.27713
lfoot -35.3581 53.4149
ltoes 24.6697
223
root 0.032143 17.5404 8.54308 13.3227 -24.696 -6.27779
lowerback 3.03437 -2.3216 4.66191
upperback -8.36794 -2.42166 4.66698
thorax -10.6424 -1.36592 2.71474
lowerneck -14.1865 2.71209 6.67633
upperneck 25.4363 -0.679757 9.23705
head 10.653 1.35667 2.08975
rclavicle 6.80837e-015 -1.98785e-014
rhumerus -40.7552 37.0079 -67.8453
rradius 131.147
rwrist -6.77252
rhand 8.7664 -39.9012
rfingers 7.12502
rthumb 33.9554 -66.6949
lclavicle 6.80837e-015 -1.98785e-014
lhumerus -1.64489 -10.4163 40.3291
lradius 122.3
lwrist -345.641
lhand 0.418592 -16.0931
lfingers 7.12502
lthumb 25.9913 12.1494
rfemur -16.9456 25.5929 14.9604
rtibia 12.0894
rfoot -11.3492 -5.45055
rtoes -10.1997
lfemur 4.89099 -29.1939 -20.268
ltibia -2.47873
lfoot -37.3624 54.3719
ltoes 25.6776
224
root 0.0262405 17.5326 8.58652 13.1095 -25.7028 -5.98357
lowerback 3.27676 -2.11196 4.6787
upperback -8.44732 -2.1384 4.37556
thorax -10.8914 -1.24447 2.37427
lowerneck -13.945 2.69571 6.75635
upperneck 25.2295 -0.705569 9.34044
head 10.5323 1.34747 2.09912
rclavicle -3.03147e-014 3.49861e-014
rhumerus -43.517 36.1526 -69.6335
rradius 131.418
rwrist -6.59828
rhand 9.3649 -39.9135
rfingers 7.12502
rthumb 34.5237 -66.5795
lclavicle -3.03147e-014 3.49861e-014
lhumerus -4.56742 -8.1421 39.8535
lradius 127.493
lwrist -345.255
lhand 0.761263 -17.1421
lfingers 7.12502
lthumb 26.3193 11.0518
rfemur -16.9508 25.885 14.5827
rtibia 12.2473
rfoot -11.4479 -4.72455
rtoes -9.90966
lfemur 5.61836 -29.4256 -21.2802
ltibia -2.67458
lfoot -39.0724 55.0926
ltoes 26.4744
225
root 0.0190725 17.5297 8.62497 12.9605 -26.8363 -5.70565
lowerback 3.36766 -1.84191 4.55876
upperback -8.45649 -1.80125 4.08798
thorax -10.9587 -1.08552 2.09133
lowerneck -13.7356 2.63356 6.76446
upperneck 24.7762 -0.778424 9.54647
head 10.3289 1.31038 2.14396
rclavicle 1.73937e-015 -2.46493e-014
rhumerus -45.6059 35.2639 -71.0254
rradius 131.524
rwrist -6.54007
rhand 11.1542 -41.5102
rfingers 7.12502
rthumb 36.2202 -67.7723
lclavicle 1.73937e-015 -2.46493e-014
lhumerus -5.6301 -6.46794 38.2476
lradius 130.862
lwrist -345.372
lhand 1.87882 -16.4327
lfingers 7.12502
lthumb 27.3887 11.5968
rfemur -17.1287 26.1645 14.1681
rtibia 12.4656
rfoot -11.4987 -3.89563
rtoes -9.88219
lfemur 6.26181 -29.5784 -22.2268
ltibia -2.86546
lfoot -41.3693 55.5566
ltoes 27.9098
226
root 0.0133411 17.5291 8.6574 12.9354 -27.9301 -5.46867
lowerback 3.30735 -1.61719 4.32546
upperback -8.50894 -1.5407 3.86821
thorax -10.9756 -0.951956 1.94951
lowerneck -13.4765 2.63997 6.67686
upperneck 24.3922 -0.777232 9.92021
head 10.1422 1.318 2.27511
rclavicle 9.88457e-014 1.66979e-014
rhumerus -46.9234 34.8104 -72.0637
rradius 131.413
rwrist -6.74544
rhand 8.49366 -40.2549
rfingers 7.12502
rthumb 33.6963 -67.1055
lclavicle 9.88457e-014 1.66979e-014
lhumerus -5.14802 -5.24213 36.12
lradius 132.676
lwrist -345.93
lhand 1.42905 -16.5192
lfingers 7.12502
lthumb 26.9584 11.5777
rfemur -17.5057 26.3025 13.7333
rtibia 12.7514
rfoot -11.5138 -2.94304
rtoes -9.96459
lfemur 6.65136 -29.6224 -22.9765
ltibia -2.98806
lfoot -43.539 55.8776
ltoes 29.1639
227
root 0.00972289 17.5303 8.68009 13.0134 -28.7835 -5.39634
lowerback 3.24159 -1.48124 4.13978
upperback -8.59233 -1.38589 3.76158
thorax -11.0249 -0.868505 1.91917
lowerneck -13.3093 2.71849 6.63085
upperneck 24.2431 -0.691936 10.1837
head 10.0567 1.36932 2.37928
rclavicle 5.01931e-014 -4.77083e-015
rhumerus -47.7223 34.8475 -72.7274
rradius 131.319
rwrist -6.99058
rhand 7.92047 -39.8
rfingers 7.12502
rthumb 33.1514 -66.7681
lclavicle 5.01931e-014 -4.77083e-015
lhumerus -2.82819 -4.49897 33.3905
lradius 133.081
lwrist -346.35
lhand -0.0324007 -15.835
lfingers 7.12502
lthumb 25.5593 12.4702
rfemur -17.9297 26.2715 13.4826
rtibia 13.0788
rfoot -11.5134 -1.93604
rtoes -9.66147
lfemur 6.65688 -29.0711 -23.2211
ltibia -2.94778
lfoot -44.3759 55.8752
ltoes 29.495
228
root 0.00670352 17.534 8.69192 13.1838 -29.2835 -5.55531
lowerback 3.17903 -1.41216 4.02629
upperback -8.625 -1.30327 3.8086
thorax -11.019 -0.817509 2.02169
lowerneck -13.2874 2.79387 6.72473
upperneck 24.1257 -0.568236 10.0943
head 10.0069 1.41849 2.34305
rclavicle -1.00386e-014 -4.05521e-014
rhumerus -48.1531 35.1662 -72.8936
rradius 131.437
rwrist -7.00711
rhand 8.16707 -39.537
rfingers 7.12502
rthumb 33.3859 -66.4549
lclavicle -1.00386e-014 -4.05521e-014
lhumerus 0.28755 -3.99001 30.8723
lradius 131.459
lwrist -345.751
lhand -1.61158 -17.9152
lfingers 7.12502
lthumb 24.0459 10.5983
rfemur -18.2935 26.1342 13.5282
rtibia 13.3924
rfoot -11.4618 -1.09219
rtoes -8.77851
lfemur 6.4403 -28.2455 -22.9742
ltibia -2.81467
lfoot -44.2487 55.6455
ltoes 29.4044
229
root 0.00238388 17.5424 8.69029 13.352 -29.4509 -5.69588
lowerback 3.1606 -1.48925 3.6506
upperback -8.63905 -1.42545 4.01281
thorax -11.0063 -0.834916 2.46701
lowerneck -13.2572 2.93079 6.92405
upperneck 23.9002 -0.303975 9.76246
head 9.91193 1.51053 2.21725
rclavicle 6.06293e-014 0
rhumerus -47.806 35.9098 -72.5011
rradius 131.511
rwrist -6.99911
rhand 8.26334 -39.4093
rfingers 7.12502
rthumb 33.4774 -66.3075
lclavicle 6.06293e-014 0
lhumerus 3.91896 -3.44411 28.432
lradius 128.878
lwrist -344.876
lhand -1.84138 -16.5708
lfingers 7.12502
lthumb 23.8255 11.9717
rfemur -18.5933 25.9853 13.5968
rtibia 13.6214
rfoot -11.3461 -0.640501
rtoes -8.12353
lfemur 6.05199 -27.4226 -22.5542
ltibia -2.62286
lfoot -43.3346 55.3658
ltoes 28.872
230
root -0.00178988 17.5558 8.67511 13.4686 -29.3211 -5.84431
lowerback 3.34271 -1.74944 3.05798
upperback -8.62847 -1.79022 4.37127
thorax -11.0683 -0.942432 3.24006
lowerneck -13.4145 3.19981 7.15477
upperneck 23.8362 0.105337 9.39692
head 9.91111 1.6817 2.10227
rclavicle 6.4605e-015 5.88403e-014
rhumerus -46.2685 37.0315 -71.56
rradius 131.22
rwrist -7.32293
rhand 8.32698 -39.5184
rfingers 7.12502
rthumb 33.5379 -66.4035
lclavicle 6.4605e-015 5.88403e-014
lhumerus 7.38763 -2.95684 25.9369
lradius 124.906
lwrist -343.647
lhand -2.49558 -16.4198
lfingers 7.12502
lthumb 23.198 12.2032
rfemur -18.7168 25.9501 13.7516
rtibia 13.6877
rfoot -11.1261 -0.693072
rtoes -8.10641
lfemur 5.55772 -26.4708 -21.949
ltibia -2.39325
lfoot -41.8416 54.8009
ltoes 28.1267
231
root -0.000414833 17.5728 8.65095 13.6447 -28.8682 -6.20951
lowerback 3.6733 -2.09502 2.64503
upperback -8.57596 -2.24154 4.82234
thorax -11.1638 -1.10111 4.03477
lowerneck -13.7435 3.48815 7.48714
upperneck 23.8345 0.518537 8.91709
head 9.97018 1.85802 1.93769
rclavicle -3.06128e-014 4.92986e-014
rhumerus -44.2788 38.0829 -70.3663
rradius 130.923
rwrist -7.88782
rhand 9.16656 -40.414
rfingers 7.12502
rthumb 34.3354 -67.1227
lclavicle -3.06128e-014 4.92986e-014
lhumerus 10.8096 -2.62431 23.666
lradius 119.686
lwrist -342.446
lhand -2.77344 -15.2655
lfingers 7.12502
lthumb 22.9314 13.3908
rfemur -18.637 25.9602 14.2078
rtibia 13.5403
rfoot -10.8244 -1.18242
rtoes -8.33829
lfemur 5.07907 -25.7434 -21.067
ltibia -2.21315
lfoot -40.3381 54.1429
ltoes 27.5242
